<svg xmlns="http://www.w3.org/2000/svg" viewBox="0 0 48 48" width="48" height="48">
  <!-- 背景圆形 -->
  <circle cx="24" cy="24" r="20" fill="#4a6fa5"/>
  <!-- 提醒图标 - 铃铛形状 -->
  <path d="M16,32 C16,26.48 20.48,22 26,22 C26.5,22 27,22.05 27.49,22.14 C29.5,20.81 32,18.59 32,16 C32,12.13 28.87,9 25,9 C21.13,9 18,12.13 18,16 C18,17.9 19.17,19.57 20.91,20.6 C19.17,21.27 18,23 18,25 C18,27.76 20.24,30 23,30 L25,30 L25,38 L16,38 Z" fill="white"/>
  <!-- 铃铛顶部 -->
  <rect x="22" y="12" width="4" height="4" fill="white"/>
  <!-- 铃铛内部线 -->
  <path d="M20,25 L28,25" stroke="white" stroke-width="2" fill="none"/>
</svg>